<mxfile host="app.diagrams.net" agent="Mozilla/5.0 (X11; Ubuntu; Linux x86_64; rv:129.0) Gecko/20100101 Firefox/129.0" version="24.7.7">
  <diagram name="Page-1" id="TJ5gsJ8iWOW6bga7UIhC">
    <mxGraphModel dx="2203" dy="766" grid="1" gridSize="10" guides="1" tooltips="1" connect="1" arrows="1" fold="1" page="1" pageScale="1" pageWidth="827" pageHeight="1169" math="0" shadow="0">
      <root>
        <mxCell id="0" />
        <mxCell id="1" parent="0" />
        <mxCell id="_Fe2m7hEjs8gQzXyp6RX-28" value="" style="rounded=0;whiteSpace=wrap;html=1;fillColor=#dae8fc;strokeColor=none;" vertex="1" parent="1">
          <mxGeometry x="-120" y="170" width="190" height="1000" as="geometry" />
        </mxCell>
        <mxCell id="_Fe2m7hEjs8gQzXyp6RX-23" value="" style="rounded=1;whiteSpace=wrap;html=1;" vertex="1" parent="1">
          <mxGeometry x="170" y="580" width="210" height="150" as="geometry" />
        </mxCell>
        <mxCell id="_Fe2m7hEjs8gQzXyp6RX-1" value="" style="rounded=1;whiteSpace=wrap;html=1;fillColor=none;" vertex="1" parent="1">
          <mxGeometry x="-160" y="420" width="830" height="150" as="geometry" />
        </mxCell>
        <mxCell id="_Fe2m7hEjs8gQzXyp6RX-2" value="&lt;div&gt;Ressources&lt;/div&gt;&lt;div&gt;publiques&lt;br&gt;&lt;/div&gt;" style="shape=cylinder3;whiteSpace=wrap;html=1;boundedLbl=1;backgroundOutline=1;size=15;fillColor=#1ba1e2;strokeColor=#006EAF;fontColor=#ffffff;" vertex="1" parent="1">
          <mxGeometry x="-90" y="455" width="120" height="80" as="geometry" />
        </mxCell>
        <mxCell id="_Fe2m7hEjs8gQzXyp6RX-3" value="&lt;div&gt;Ressources&lt;/div&gt;&lt;div&gt;privées&lt;br&gt;&lt;/div&gt;" style="shape=cylinder3;whiteSpace=wrap;html=1;boundedLbl=1;backgroundOutline=1;size=15;" vertex="1" parent="1">
          <mxGeometry x="470" y="455" width="120" height="80" as="geometry" />
        </mxCell>
        <mxCell id="_Fe2m7hEjs8gQzXyp6RX-5" value="&lt;div&gt;propriétaire&lt;/div&gt;&lt;div&gt;de la&lt;/div&gt;&lt;div&gt;ressource privée&lt;br&gt;&lt;/div&gt;" style="sketch=0;pointerEvents=1;shadow=0;dashed=0;html=1;strokeColor=none;fillColor=#2072B8;labelPosition=center;verticalLabelPosition=bottom;verticalAlign=top;outlineConnect=0;align=center;shape=mxgraph.office.users.user;" vertex="1" parent="1">
          <mxGeometry x="810" y="470" width="46" height="50" as="geometry" />
        </mxCell>
        <mxCell id="_Fe2m7hEjs8gQzXyp6RX-6" value="" style="endArrow=none;dashed=1;html=1;dashPattern=1 3;strokeWidth=2;rounded=0;" edge="1" parent="1" source="_Fe2m7hEjs8gQzXyp6RX-3" target="_Fe2m7hEjs8gQzXyp6RX-5">
          <mxGeometry width="50" height="50" relative="1" as="geometry">
            <mxPoint x="390" y="420" as="sourcePoint" />
            <mxPoint x="440" y="370" as="targetPoint" />
          </mxGeometry>
        </mxCell>
        <mxCell id="_Fe2m7hEjs8gQzXyp6RX-17" value="" style="group" vertex="1" connectable="0" parent="1">
          <mxGeometry x="230" y="819" width="758" height="350" as="geometry" />
        </mxCell>
        <mxCell id="_Fe2m7hEjs8gQzXyp6RX-13" value="" style="group" vertex="1" connectable="0" parent="_Fe2m7hEjs8gQzXyp6RX-17">
          <mxGeometry x="260" width="240" height="350" as="geometry" />
        </mxCell>
        <mxCell id="_Fe2m7hEjs8gQzXyp6RX-12" value="" style="rounded=0;whiteSpace=wrap;html=1;fillColor=#f8cecc;strokeColor=#b85450;" vertex="1" parent="_Fe2m7hEjs8gQzXyp6RX-13">
          <mxGeometry width="240" height="350" as="geometry" />
        </mxCell>
        <mxCell id="_Fe2m7hEjs8gQzXyp6RX-8" value="&lt;h1 style=&quot;margin-top: 0px; line-height: 80%;&quot;&gt;&lt;font style=&quot;font-size: 16px;&quot;&gt;2. Authorization / Autorisation&lt;/font&gt;&lt;br&gt;&lt;/h1&gt;&lt;p&gt;Ce que la personne authentifiée à la droit de faire&lt;br&gt;&lt;/p&gt;" style="text;html=1;whiteSpace=wrap;overflow=hidden;rounded=0;" vertex="1" parent="_Fe2m7hEjs8gQzXyp6RX-13">
          <mxGeometry x="25" y="20" width="200" height="120" as="geometry" />
        </mxCell>
        <mxCell id="_Fe2m7hEjs8gQzXyp6RX-14" value="" style="group" vertex="1" connectable="0" parent="_Fe2m7hEjs8gQzXyp6RX-17">
          <mxGeometry x="518" width="240" height="350" as="geometry" />
        </mxCell>
        <mxCell id="_Fe2m7hEjs8gQzXyp6RX-11" value="" style="rounded=0;whiteSpace=wrap;html=1;fillColor=#f8cecc;strokeColor=#b85450;" vertex="1" parent="_Fe2m7hEjs8gQzXyp6RX-14">
          <mxGeometry width="240" height="350" as="geometry" />
        </mxCell>
        <mxCell id="_Fe2m7hEjs8gQzXyp6RX-9" value="&lt;h1 style=&quot;margin-top: 0px; line-height: 80%;&quot;&gt;&lt;font style=&quot;font-size: 16px;&quot;&gt;3. Accountability / Traçabilité&lt;/font&gt;&lt;br&gt;&lt;/h1&gt;&lt;p&gt;QUOI&lt;/p&gt;&lt;ul&gt;&lt;li&gt;la ressource consommée&lt;/li&gt;&lt;li&gt;le verbe HTTP appelé&lt;/li&gt;&lt;li&gt;le code réponse HTTP&lt;/li&gt;&lt;/ul&gt;&lt;div&gt;QUI&lt;/div&gt;&lt;div&gt;&lt;ul&gt;&lt;li&gt;l&#39;utilisateur final à l&#39;origine de l&#39;appel&lt;/li&gt;&lt;li&gt;l&#39;application qui fait l&#39;appel&lt;/li&gt;&lt;/ul&gt;&lt;div&gt;QUAND&lt;/div&gt;&lt;div&gt;&lt;ul&gt;&lt;li&gt;timestamp (ISO-8601)&lt;br&gt;&lt;/li&gt;&lt;/ul&gt;&lt;/div&gt;&lt;/div&gt;" style="text;html=1;whiteSpace=wrap;overflow=hidden;rounded=0;" vertex="1" parent="_Fe2m7hEjs8gQzXyp6RX-14">
          <mxGeometry x="22" y="20" width="200" height="320" as="geometry" />
        </mxCell>
        <mxCell id="_Fe2m7hEjs8gQzXyp6RX-16" value="" style="group" vertex="1" connectable="0" parent="_Fe2m7hEjs8gQzXyp6RX-17">
          <mxGeometry width="240" height="350" as="geometry" />
        </mxCell>
        <mxCell id="_Fe2m7hEjs8gQzXyp6RX-15" value="" style="rounded=0;whiteSpace=wrap;html=1;fillColor=#f8cecc;strokeColor=#b85450;" vertex="1" parent="_Fe2m7hEjs8gQzXyp6RX-16">
          <mxGeometry width="240" height="350" as="geometry" />
        </mxCell>
        <mxCell id="_Fe2m7hEjs8gQzXyp6RX-7" value="&lt;h1 style=&quot;margin-top: 0px; line-height: 80%;&quot;&gt;&lt;font style=&quot;font-size: 16px;&quot;&gt;1. Authentication / Authentification&lt;/font&gt;&lt;br&gt;&lt;/h1&gt;&lt;p&gt;Qui appelle l&#39;API&lt;br&gt;&lt;/p&gt;" style="text;html=1;whiteSpace=wrap;overflow=hidden;rounded=0;" vertex="1" parent="_Fe2m7hEjs8gQzXyp6RX-16">
          <mxGeometry x="24" y="20" width="200" height="110" as="geometry" />
        </mxCell>
        <mxCell id="_Fe2m7hEjs8gQzXyp6RX-18" value="Resource Provider" style="text;html=1;align=center;verticalAlign=middle;whiteSpace=wrap;rounded=0;fontStyle=3" vertex="1" parent="1">
          <mxGeometry x="390" y="570" width="210" height="30" as="geometry" />
        </mxCell>
        <mxCell id="_Fe2m7hEjs8gQzXyp6RX-19" value="Développeur" style="sketch=0;pointerEvents=1;shadow=0;dashed=0;html=1;strokeColor=none;labelPosition=center;verticalLabelPosition=bottom;verticalAlign=top;outlineConnect=0;align=center;shape=mxgraph.office.users.user;fillColor=#DA4026;fontStyle=3" vertex="1" parent="1">
          <mxGeometry x="930" y="320" width="46" height="50" as="geometry" />
        </mxCell>
        <mxCell id="_Fe2m7hEjs8gQzXyp6RX-20" value="Utilisateur" style="sketch=0;pointerEvents=1;shadow=0;dashed=0;html=1;strokeColor=none;labelPosition=center;verticalLabelPosition=bottom;verticalAlign=top;outlineConnect=0;align=center;shape=mxgraph.office.users.user;fillColor=#2072B8;fontStyle=3" vertex="1" parent="1">
          <mxGeometry x="1000" y="250" width="46" height="50" as="geometry" />
        </mxCell>
        <mxCell id="_Fe2m7hEjs8gQzXyp6RX-21" value="Identities" style="shape=cylinder3;whiteSpace=wrap;html=1;boundedLbl=1;backgroundOutline=1;size=15;" vertex="1" parent="1">
          <mxGeometry x="210" y="615" width="120" height="80" as="geometry" />
        </mxCell>
        <mxCell id="_Fe2m7hEjs8gQzXyp6RX-24" value="Identity Provider" style="text;html=1;align=center;verticalAlign=middle;whiteSpace=wrap;rounded=0;fontStyle=3" vertex="1" parent="1">
          <mxGeometry x="190" y="730" width="160" height="30" as="geometry" />
        </mxCell>
        <mxCell id="_Fe2m7hEjs8gQzXyp6RX-25" value="Client" style="sketch=0;pointerEvents=1;shadow=0;dashed=0;html=1;strokeColor=none;fillColor=#505050;labelPosition=center;verticalLabelPosition=top;verticalAlign=bottom;outlineConnect=0;align=center;shape=mxgraph.office.concepts.application_generic;" vertex="1" parent="1">
          <mxGeometry x="-56.5" y="230" width="53" height="40" as="geometry" />
        </mxCell>
        <mxCell id="_Fe2m7hEjs8gQzXyp6RX-27" value="" style="endArrow=none;dashed=1;html=1;rounded=0;strokeWidth=2;dashPattern=8 8;" edge="1" parent="1">
          <mxGeometry width="50" height="50" relative="1" as="geometry">
            <mxPoint x="90" y="1180" as="sourcePoint" />
            <mxPoint x="90" y="180" as="targetPoint" />
          </mxGeometry>
        </mxCell>
        <mxCell id="_Fe2m7hEjs8gQzXyp6RX-29" value="" style="endArrow=classic;html=1;rounded=0;" edge="1" parent="1" source="_Fe2m7hEjs8gQzXyp6RX-25" target="_Fe2m7hEjs8gQzXyp6RX-2">
          <mxGeometry width="50" height="50" relative="1" as="geometry">
            <mxPoint x="420" y="590" as="sourcePoint" />
            <mxPoint x="470" y="540" as="targetPoint" />
          </mxGeometry>
        </mxCell>
      </root>
    </mxGraphModel>
  </diagram>
</mxfile>
